<svg width="500" height="300" viewBox="0 0 500 300" fill="none" xmlns="http://www.w3.org/2000/svg">
<path d="M0 300H251.678L0 0V300Z" fill="white"/>
<path d="M251.678 0H0L251.678 300V0Z" fill="white"/>
<path d="M251.678 300H500L251.678 0V300Z" fill="white"/>
<path d="M500 0H250L500 300V0Z" fill="white"/>
<path d="M17.6849 233.286H19.7785V211.857H17.7079C17.0631 211.793 11.4039 210.004 11.4039 169C11.4039 147.646 10.0116 134.221 8.25925 126.143C10.0116 118.064 11.4039 104.639 11.4039 83.2857C11.4039 42.2821 17.0631 40.4929 17.6849 40.4286H19.7785V19H17.6807C14.0608 19.0429 7.21661 32.5429 7.21661 83.2857C7.21661 113.286 3.70347 115.321 3 115.429L3.02931 136.857C3.20099 136.857 7.21661 137.221 7.21661 169C7.21661 219.743 14.0608 233.243 17.6849 233.286Z" fill="#9B9B9B"/>
<path d="M163.094 233.286H161V211.857H163.071C163.715 211.793 169.375 210.004 169.375 169C169.375 147.646 170.767 134.221 172.519 126.143C170.767 118.064 169.375 104.639 169.375 83.2857C169.375 42.2821 163.715 40.4929 163.094 40.4286H161V19H163.098C166.718 19.0429 173.562 32.5429 173.562 83.2857C173.562 113.286 177.075 115.321 177.779 115.429L177.749 136.857C177.578 136.857 173.562 137.221 173.562 169C173.562 219.743 166.718 233.243 163.094 233.286Z" fill="#9B9B9B"/>
</svg>
