<svg width="40" height="40" viewBox="0 0 72 72" fill="none" xmlns="http://www.w3.org/2000/svg">
<path fill-rule="evenodd" clip-rule="evenodd" d="M42.1467 10.9478H45.8477V11.0238C45.8477 13.5838 44.9157 15.9738 43.0567 18.1868C40.8127 20.8168 38.0987 22.3368 35.1567 22.0968C35.1171 21.7749 35.097 21.451 35.0967 21.1268C35.0967 18.6698 36.1637 16.0388 38.0587 13.8888C39.0047 12.7988 40.2077 11.8948 41.6667 11.1718C41.8267 11.0938 41.9867 11.0188 42.1467 10.9478V10.9478ZM15.1987 30.8548C15.3887 30.4578 15.5957 30.0718 15.8187 29.6968C16.9837 27.7048 18.5317 26.1338 20.4687 24.9808C22.369 23.8402 24.5386 23.2262 26.7547 23.2018C27.9887 23.2018 29.6067 23.5848 31.6167 24.3368C33.6217 25.0908 34.9087 25.4738 35.4727 25.4738C35.8947 25.4738 37.3247 25.0258 39.7487 24.1338C42.0417 23.3068 43.9767 22.9638 45.5617 23.0998C49.8567 23.4468 53.0827 25.1448 55.2287 28.2038C53.9457 28.9838 52.8787 29.8668 52.0287 30.8548H15.1997H15.1987Z" fill="#5C9E31"/>
<path d="M42.1474 10.9478V9.94775C42.0071 9.94789 41.8684 9.97753 41.7404 10.0348L42.1474 10.9478ZM45.8484 10.9478L46.8484 10.9408C46.8465 10.6768 46.7403 10.4242 46.553 10.2382C46.3657 10.0521 46.1124 9.94775 45.8484 9.94775V10.9478ZM43.0574 18.1878L43.8174 18.8358L43.8224 18.8298L43.0564 18.1868L43.0574 18.1878ZM35.1574 22.0978L34.1644 22.2178C34.1921 22.4463 34.2979 22.6583 34.4639 22.8179C34.6299 22.9775 34.8459 23.0749 35.0754 23.0938L35.1564 22.0968L35.1574 22.0978ZM38.0594 13.8878L38.8094 14.5498L38.8144 14.5448L38.0594 13.8888V13.8878ZM41.6674 11.1718L41.2274 10.2738L41.2234 10.2758L41.6674 11.1718V11.1718ZM15.1994 30.8548L14.2974 30.4238C14.2246 30.5762 14.1916 30.7445 14.2014 30.9131C14.2113 31.0817 14.2637 31.2451 14.3537 31.388C14.4438 31.5309 14.5686 31.6486 14.7165 31.7302C14.8643 31.8119 15.0305 31.8547 15.1994 31.8548V30.8548ZM15.8194 29.6968L16.6794 30.2088L16.6834 30.2008L15.8204 29.6968H15.8194ZM20.4694 24.9808L19.9584 24.1208L20.4694 24.9808ZM26.7554 23.2018V22.2018H26.7394L26.7554 23.2018ZM31.6174 24.3368L31.9694 23.4008H31.9674L31.6174 24.3368ZM39.7494 24.1338L39.4104 23.1938L39.4044 23.1958L39.7494 24.1338V24.1338ZM45.5624 23.0998L45.4774 24.0958H45.4814L45.5614 23.0998H45.5624ZM55.2294 28.2038L55.7494 29.0578C55.8663 28.9867 55.9674 28.8923 56.0464 28.7806C56.1254 28.6688 56.1806 28.542 56.2087 28.4081C56.2367 28.2741 56.2369 28.1358 56.2094 28.0018C56.1818 27.8677 56.127 27.7408 56.0484 27.6288L55.2294 28.2038ZM52.0294 30.8548V31.8548C52.1732 31.8548 52.3154 31.8239 52.4462 31.764C52.5771 31.7041 52.6934 31.6167 52.7874 31.5078L52.0294 30.8548ZM42.1474 11.9478H45.8484V9.94775H42.1474V11.9478ZM44.8484 10.9548V11.0248H46.8484V10.9408L44.8484 10.9548ZM44.8484 11.0248C44.8484 13.3178 44.0204 15.4858 42.2914 17.5438L43.8224 18.8298C45.8124 16.4628 46.8484 13.8498 46.8484 11.0238H44.8484V11.0248ZM42.2964 17.5378C40.1764 20.0238 37.7494 21.3048 35.2384 21.1008L35.0754 23.0938C38.4504 23.3688 41.4504 21.6108 43.8174 18.8358L42.2964 17.5378V17.5378ZM36.1494 21.9758C36.1148 21.6941 36.0974 21.4105 36.0974 21.1268H34.0974C34.0974 21.5098 34.1224 21.8738 34.1644 22.2178L36.1494 21.9758ZM36.0974 21.1268C36.0974 18.9488 37.0504 16.5468 38.8094 14.5498L37.3094 13.2278C35.2794 15.5318 34.0974 18.3898 34.0974 21.1278H36.0974V21.1268ZM38.8144 14.5448C39.6624 13.5678 40.7544 12.7398 42.1114 12.0688L41.2234 10.2758C39.6614 11.0488 38.3474 12.0318 37.3044 13.2328L38.8144 14.5448V14.5448ZM42.1064 12.0708C42.2564 11.9968 42.4064 11.9268 42.5544 11.8608L41.7404 10.0348C41.5704 10.1098 41.4004 10.1898 41.2284 10.2738L42.1064 12.0708ZM16.1014 31.2868C16.2784 30.9168 16.4714 30.5578 16.6794 30.2088L14.9614 29.1838C14.7214 29.5858 14.5004 29.9988 14.2974 30.4238L16.1014 31.2868ZM16.6834 30.2008C17.7634 28.3518 19.1934 26.9048 20.9814 25.8398L19.9584 24.1208C17.8714 25.3628 16.2034 27.0578 14.9574 29.1918L16.6834 30.2018V30.2008ZM20.9814 25.8398C22.7314 24.7888 24.7301 24.2233 26.7714 24.2018L26.7394 22.2018C24.3124 22.2418 22.0474 22.8778 19.9584 24.1218L20.9814 25.8398ZM26.7554 24.2018C27.8104 24.2018 29.2954 24.5358 31.2674 25.2728L31.9674 23.3998C29.9194 22.6338 28.1674 22.2018 26.7554 22.2018V24.2018ZM31.2654 25.2718C32.2784 25.6538 33.1264 25.9478 33.8024 26.1468C34.4444 26.3368 35.0324 26.4738 35.4734 26.4738V24.4738C35.3514 24.4738 35.0134 24.4188 34.3694 24.2288C33.7594 24.0488 32.9614 23.7738 31.9694 23.4008L31.2654 25.2728V25.2718ZM35.4734 26.4738C35.7084 26.4738 35.9774 26.4188 36.2134 26.3618C36.4754 26.2988 36.7934 26.2078 37.1594 26.0928C37.8954 25.8628 38.8774 25.5208 40.0954 25.0728L39.4054 23.1958C38.4655 23.5471 37.5175 23.8765 36.5624 24.1838C36.2164 24.2928 35.9454 24.3688 35.7444 24.4178C35.5184 24.4728 35.4504 24.4738 35.4744 24.4738V26.4738H35.4734ZM40.0894 25.0748C42.3094 24.2738 44.0914 23.9778 45.4774 24.0958L45.6474 22.1028C43.8624 21.9508 41.7744 22.3408 39.4104 23.1928L40.0894 25.0748V25.0748ZM45.4814 24.0958C49.5314 24.4238 52.4644 26.0028 54.4114 28.7778L56.0484 27.6288C53.7034 24.2868 50.1814 22.4698 45.6424 22.1028L45.4814 24.0958ZM54.7104 27.3488C53.3504 28.1748 52.2004 29.1248 51.2714 30.2028L52.7874 31.5078C53.5604 30.6098 54.5424 29.7918 55.7494 29.0578L54.7104 27.3498V27.3488ZM52.0304 29.8548H15.1984V31.8548H52.0284V29.8548H52.0304Z" fill="#5C9E31"/>
<path fill-rule="evenodd" clip-rule="evenodd" d="M54.26 29C51.693 30.832 50.17 33.167 49.69 36H13.769C14.064 33.702 14.748 31.652 15.821 29.855C15.993 29.561 16.173 29.275 16.361 29H54.261H54.26Z" fill="#FCEA2B"/>
<path fill-rule="evenodd" clip-rule="evenodd" d="M49.8686 35C49.6306 35.94 49.5166 36.94 49.5266 38C49.5466 39.842 49.9306 41.509 50.6776 43H13.9876C13.7326 41.5357 13.6032 40.0523 13.6006 38.566C13.6006 37.314 13.6986 36.126 13.8956 35H49.8686V35Z" fill="#F4AA41"/>
<path fill-rule="evenodd" clip-rule="evenodd" d="M50.0749 41.9995C50.6389 43.7485 51.6349 45.2875 53.0649 46.6155C54.091 47.6006 55.2892 48.389 56.5999 48.9415L56.5799 48.9995H15.4829C15.4009 48.7755 15.3209 48.5495 15.2419 48.3215C14.5049 46.1685 14.0149 44.0615 13.7749 41.9995H50.0749V41.9995Z" fill="#EA5A47"/>
<path fill-rule="evenodd" clip-rule="evenodd" d="M53.2433 55.9995C54.1991 54.5691 55.0213 53.0537 55.6993 51.4725C56.0173 50.7145 56.3163 49.9245 56.6003 49.0995C56.5233 49.067 56.4466 49.0337 56.3703 48.9995H15.4253C16.3753 51.6265 17.5553 53.9575 18.9633 55.9995H53.2423H53.2433Z" fill="#8967AA"/>
<path fill-rule="evenodd" clip-rule="evenodd" d="M26.1387 62C25.0407 61.736 23.9447 61.094 22.8497 60.074C21.9217 59.262 20.7737 57.904 19.4097 56H52.8057C51.4297 57.95 50.2977 59.308 49.4187 60.074C48.2587 61.144 47.0307 61.784 45.7307 62H43.8267C42.8967 61.865 41.8467 61.558 40.6767 61.075C39.0397 60.405 37.5347 60.074 36.1587 60.074C34.7157 60.074 33.1677 60.406 31.5117 61.076C30.3917 61.53 29.4197 61.837 28.5917 62H26.1387V62Z" fill="#61B2E4"/>
<path d="M35.1566 22.097C35.1173 21.7752 35.0975 21.4512 35.0976 21.127C35.0976 18.67 36.1646 16.039 38.0596 13.889C39.0056 12.799 40.2086 11.895 41.6676 11.172C43.1236 10.461 44.5006 10.067 45.7956 10C45.8336 10.342 45.8486 10.684 45.8486 11.024C45.8486 13.584 44.9166 15.974 43.0576 18.187C42.2276 19.16 41.3326 19.982 40.3856 20.618L35.1566 22.097ZM55.6996 50.841C54.9549 52.5792 54.0352 54.2371 52.9546 55.789C51.5116 57.852 50.3296 59.281 49.4196 60.074C48.0076 61.376 46.4946 62.042 44.8756 62.08C43.7126 62.08 42.3106 61.749 40.6786 61.075C39.0406 60.405 37.5356 60.074 36.1586 60.074C34.7166 60.074 33.1686 60.406 31.5126 61.076C29.8546 61.749 28.5186 62.099 27.4976 62.134C25.9446 62.2 24.3966 61.514 22.8506 60.074C21.8646 59.211 20.6306 57.732 19.1536 55.638C17.5676 53.4 16.2636 50.806 15.2426 47.848C14.1486 44.654 13.6006 41.56 13.6006 38.566C13.6006 35.136 14.3406 32.176 15.8206 29.696C16.9846 27.706 18.5326 26.134 20.4706 24.981C22.3705 23.8406 24.5398 23.2266 26.7556 23.202C27.9896 23.202 29.6076 23.585 31.6176 24.337C33.6226 25.091 34.9096 25.474 35.4736 25.474C35.8956 25.474 37.3256 25.026 39.7496 24.134C42.0426 23.307 43.9776 22.964 45.5626 23.1C49.8576 23.447 53.0836 25.145 55.2296 28.204C51.3896 30.538 49.4886 33.806 49.5266 38C49.5606 41.266 50.7426 43.984 53.0646 46.142C54.091 47.1272 55.2895 47.9155 56.6006 48.468C56.3265 49.2687 56.026 50.0602 55.6996 50.841V50.841Z" stroke="black" stroke-width="1.77778" stroke-linecap="round" stroke-linejoin="round"/>
</svg>
