<?xml version="1.0" encoding="UTF-8"?>
<!DOCTYPE svg PUBLIC "-//W3C//DTD SVG 1.0//EN" "http://www.w3.org/TR/2001/REC-SVG-20010904/DTD/svg10.dtd">
<!-- Creator: CorelDRAW 2017 -->
<svg xmlns="http://www.w3.org/2000/svg" xml:space="preserve" width="356px" height="200px" version="1.0" shape-rendering="geometricPrecision" text-rendering="geometricPrecision" image-rendering="optimizeQuality" fill-rule="evenodd" clip-rule="evenodd"
viewBox="0 0 35600 20025"
 xmlns:xlink="http://www.w3.org/1999/xlink">
 <g id="Layer_x0020_1">
  <metadata id="CorelCorpID_0Corel-Layer"/>
  <g id="_2578544486336">
   <path fill="#E6E7E8" d="M0 0l35600 0 0 20025 -35600 0 0 -20025z"/>
   <path fill="#373435" fill-opacity="0.078431" d="M15937 7412l-3548 3280 1267 0 0 488 -897 829 0 384 1537 -1421 59 -54 64 -50 67 -46 70 -40 73 -35 76 -29 79 -25 82 -18 84 -14 88 -8 90 -3 123 5 118 12 112 22 105 29 99 38 93 47 86 55 80 64 74 71 65 78 57 85 17 32 537 -496 1142 0 81 2 78 5 76 10 74 13 71 17 69 21 67 24 64 28 60 32 57 35 54 38 50 41 46 44 43 48 39 51 36 54 31 56 28 58 23 61 19 62 14 64 11 66 6 68 2 70 -5 105 -7 50 1216 -1123 432 0 -161 476 515 -476 604 0 0 516 558 -516 1142 0 81 2 79 5 76 10 74 13 71 17 69 21 66 24 64 28 61 32 57 35 54 38 50 41 46 44 43 48 39 51 35 54 32 56 27 58 23 61 19 62 15 64 10 66 7 68 2 70 -5 105 -14 99 -23 93 -32 88 -41 82 -51 76 -60 71 -69 65 -1343 1241 0 38 -1923 1778 2981 0 146 -7 152 -20 153 -29 152 -38 147 -44 137 -48 124 -50 107 -50 144 -78 139 -83 132 -90 125 -95 119 -101 -2395 2215 442 0 296 -10 287 -27 279 -45 271 -61 261 -77 252 -91 244 -106 233 -119 224 -131 213 -142 204 -154 193 -163 -4622 4273 -21908 0 0 -3126 11599 -10722 -140 140 -132 150 -122 158 -112 165 -101 170 -88 174 -52 121 -51 131 -48 141 -42 149 -35 155 -27 160 -18 162 -6 164 -2688 2485 -7 15 -73 191 -64 194 -55 198 -46 200 -37 203 -4 36 4907 -4537 -89 100 -82 109 -72 117 -34 63 -32 67 -31 70 -29 72 -25 74 -22 76 -17 77 -13 78 -6 52 -2 21 3954 -3656 -109 107 -106 110 -104 114 -102 119 -101 123 -368 509 -3063 2832 1 16 9 87 12 81 10 77 7 76 -2 78 -12 82 -27 91 -44 100 -62 103 -68 83 -2811 2598 -11 74 -13 105 -7 104 -3 102 4 160 9 149 2174 -2010 397 0 5446 -5034 -84 82 -82 84 -78 88 -76 89 -73 92 -71 94 -68 97 -66 98 -64 101 -62 103 -60 104 -74 151 -68 155 -69 152 -81 141 -101 123z"/>
   <g>
    <path fill="#FEFEFE" d="M15168 5704c-86,-20 -178,-83 -270,-120 -1014,-405 -2118,-292 -2997,343 -418,301 -779,738 -997,1207 -142,306 -279,745 -279,1183 -151,35 -472,187 -618,260 -2072,1036 -2989,3537 -2014,5727 309,693 970,1484 1619,1871 182,109 318,201 526,293 466,208 1084,410 1754,410l11681 0c1598,0 2857,-808 3619,-1861 82,-114 138,-212 212,-334l193 -373c441,-870 512,-2048 243,-3005 -31,-110 -76,-232 -111,-338 -40,-121 -77,-194 -125,-304 -380,-883 -1102,-1592 -1938,-2060 -134,-75 -483,-232 -630,-266l-20 -293c-10,-209 -91,-657 -136,-838 -216,-858 -640,-1699 -1254,-2335 -60,-63 -88,-111 -155,-176l-341 -302c-264,-235 -561,-422 -870,-594 -1227,-682 -2802,-850 -4135,-403 -657,220 -1177,483 -1715,918 -332,268 -606,546 -874,881l-368 509z"/>
    <path fill="#CF0847" d="M13656 11180l-897 0 0 2438 -602 0 0 -2438 -886 0 0 -488 2385 0 0 488zm1766 -3584c648,0 692,-516 908,-906 313,-563 710,-1045 1249,-1403 712,-475 1379,-655 2250,-655 762,0 1547,307 2106,702 188,133 338,270 502,434 690,689 1117,1641 1117,2647 0,279 -60,570 38,780 208,445 571,396 981,540 62,22 108,43 168,67 589,239 1077,692 1398,1234 818,1379 303,3282 -1272,4074 -260,130 -740,286 -1118,286l-11896 0c-707,0 -1459,-397 -1925,-863 -575,-575 -844,-1277 -844,-2140 0,-541 221,-1165 502,-1546 207,-282 325,-423 593,-636 1004,-798 1567,-374 1880,-987 145,-285 65,-426 47,-672 -9,-120 -13,-202 6,-347 27,-208 112,-413 203,-577 360,-649 1135,-936 1844,-739 219,61 345,135 516,264 230,171 378,443 747,443zm-254 -1892c-86,-20 -178,-83 -270,-120 -1014,-405 -2118,-292 -2997,343 -418,301 -779,738 -997,1207 -142,306 -279,745 -279,1183 -151,35 -472,187 -618,260 -2072,1036 -2989,3537 -2014,5727 309,693 970,1484 1619,1871 182,109 318,201 526,293 466,208 1084,410 1754,410l11681 0c1598,0 2857,-808 3619,-1861 82,-114 138,-212 212,-334l193 -373c441,-870 512,-2048 243,-3005 -31,-110 -76,-232 -111,-338 -40,-121 -77,-194 -125,-304 -380,-883 -1102,-1592 -1938,-2060 -134,-75 -483,-232 -630,-266l-20 -293c-10,-209 -91,-657 -136,-838 -216,-858 -640,-1699 -1254,-2335 -60,-63 -88,-111 -155,-176l-341 -302c-264,-235 -561,-422 -870,-594 -1227,-682 -2802,-850 -4135,-403 -657,220 -1177,483 -1715,918 -332,268 -606,546 -874,881l-368 509zm7523 6883l0 1031 -604 0 0 -2926 1142 0c220,0 413,40 580,120 167,80 296,194 385,343 90,147 135,316 135,505 0,287 -98,513 -295,679 -196,165 -468,248 -814,248l-529 0zm0 -488l538 0c160,0 282,-38 365,-114 84,-75 126,-182 126,-322 0,-142 -42,-258 -127,-347 -84,-88 -201,-133 -350,-136l-552 0 0 919zm-1162 1519l-604 0 0 -2926 604 0 0 2926zm-2034 251l-434 0 1078 -3177 432 0 -1076 3177zm-2197 -1282l0 1031 -604 0 0 -2926 1142 0c219,0 412,40 580,120 166,80 295,194 385,343 89,147 134,316 134,505 0,287 -98,513 -295,679 -196,165 -468,248 -814,248l-528 0zm0 -488l538 0c159,0 281,-38 364,-114 84,-75 126,-182 126,-322 0,-142 -42,-258 -126,-347 -85,-88 -201,-133 -351,-136l-551 0 0 919zm-1000 544c-23,314 -139,562 -348,744 -210,180 -486,271 -829,271 -375,0 -671,-126 -886,-379 -216,-252 -323,-598 -323,-1040l0 -178c0,-282 49,-530 149,-745 98,-214 240,-379 425,-494 184,-114 398,-172 642,-172 338,0 611,91 816,272 207,181 326,435 358,763l-603 0c-14,-189 -67,-327 -157,-412 -90,-85 -229,-128 -414,-128 -201,0 -351,72 -450,216 -100,144 -151,368 -155,671l0 221c0,317 48,548 144,694 95,146 247,219 454,219 186,0 325,-42 417,-128 92,-85 144,-217 158,-395l602 0z"/>
   </g>
   <path fill="#373435" fill-opacity="0.031373" d="M2082 17547c68,103 112,202 156,312 31,63 48,183 199,183 43,0 106,-14 162,-45 63,-33 112,-83 136,-159l61 -202 145 -72 10 10c-20,76 -24,148 -24,206 0,169 145,233 262,233 68,0 128,-33 128,-95 0,-80 -34,-216 -77,-338 67,-68 135,-136 213,-192l12 7c34,144 54,286 54,381 0,93 -42,196 -76,264 -70,132 -194,237 -344,237 -114,0 -240,-58 -328,-163l-5 0c-82,101 -208,194 -412,194l-63 0c-10,134 -39,229 -83,314 -121,237 -480,404 -817,404 -471,0 -706,-272 -706,-633 0,-223 72,-431 184,-578l92 37c-70,134 -116,262 -116,386 0,338 274,499 592,499 293,0 657,-188 723,-404 -24,-237 -114,-349 -250,-565 41,-72 95,-145 160,-221l12 0zm5421 -1275c99,62 197,137 291,221 -53,74 -119,143 -201,202 -95,-76 -189,-142 -287,-212 66,-74 131,-147 197,-211zm51 927c-160,0 -291,105 -291,183 0,167 320,219 703,217 -48,-196 -216,-400 -412,-400zm-359 895c209,0 391,-7 529,-42 155,-39 286,-117 286,-171 0,-14 0,-31 -5,-45 -87,8 -187,8 -274,8 -281,0 -497,-64 -582,-223 -22,-43 -37,-93 -37,-148 0,-153 66,-303 182,-406 97,-85 204,-139 313,-139 197,0 355,159 464,409 60,136 102,293 102,491 0,132 -37,243 -119,325 -153,149 -435,205 -866,205l-197 0 0 0 -51 0c-107,0 -184,-19 -245,-66l-10 0c3,24 5,49 5,72 0,97 -31,220 -97,319 -192,287 -400,411 -580,411 -182,0 -405,-70 -606,-161l36 -70c66,27 155,45 279,45 325,0 752,-313 806,-619 -12,-24 -34,-57 -66,-92 -95,-114 -155,-209 -211,-308 49,-94 92,-171 134,-239l16 -2c139,283 265,446 546,446l44 0 0 0 204 0zm-1408 299c24,-130 27,-277 27,-413l0 -202c0,-377 -49,-926 -88,-1283 68,-74 163,-161 238,-218l22 6c51,449 63,971 63,1452 0,126 -5,249 -17,340 -7,113 -73,200 -213,332l-32 -14zm-1449 -596c7,177 95,317 398,317 189,0 349,-49 526,-134 32,-14 49,-33 49,-49 0,-112 -85,-258 -228,-392 -138,-126 -323,-237 -495,-312 -58,-24 -78,-51 -78,-76 0,-51 68,-159 124,-235l19 -2c197,103 418,256 580,427 148,157 240,315 240,489 0,128 -38,249 -101,360 -216,110 -447,192 -675,192 -276,0 -466,-130 -466,-435 0,-33 0,-84 12,-150l95 0zm-501 -504l173 279c63,103 121,214 121,392l0 226c0,184 -116,380 -306,574 -148,132 -279,187 -400,187 -180,0 -386,-55 -624,-158l27 -70c75,20 163,37 269,37 342,-2 692,-252 852,-557 19,-35 27,-68 27,-91 0,-35 -20,-74 -34,-109 -88,-165 -185,-316 -291,-454 55,-89 111,-173 172,-258l14 2z"/>
  </g>
 </g>
</svg>
