<?xml version="1.0" encoding="UTF-8" standalone="no"?>
<!-- Created with Inkscape (http://www.inkscape.org/) -->

<svg
   xmlns:dc="http://purl.org/dc/elements/1.1/"
   xmlns:cc="http://creativecommons.org/ns#"
   xmlns:rdf="http://www.w3.org/1999/02/22-rdf-syntax-ns#"
   xmlns:svg="http://www.w3.org/2000/svg"
   xmlns="http://www.w3.org/2000/svg"
   xmlns:sodipodi="http://sodipodi.sourceforge.net/DTD/sodipodi-0.dtd"
   xmlns:inkscape="http://www.inkscape.org/namespaces/inkscape"
   id="svg2"
   version="1.1"
   inkscape:version="0.47 r22583"
   width="732.7774"
   height="117.08"
   xml:space="preserve"
   sodipodi:docname="Windows_1.0_logo.svg"><metadata
     id="metadata8"><rdf:RDF><cc:Work
         rdf:about=""><dc:format>image/svg+xml</dc:format><dc:type
           rdf:resource="http://purl.org/dc/dcmitype/StillImage" /><dc:title /></cc:Work></rdf:RDF></metadata><defs
     id="defs6"><inkscape:perspective
       sodipodi:type="inkscape:persp3d"
       inkscape:vp_x="0 : 0.5 : 1"
       inkscape:vp_y="0 : 1000 : 0"
       inkscape:vp_z="1 : 0.5 : 1"
       inkscape:persp3d-origin="0.5 : 0.33333333 : 1"
       id="perspective10" /><clipPath
       clipPathUnits="userSpaceOnUse"
       id="clipPath20"><path
         d="m 0,0 6120,0 0,1810 L 0,1810 0,0 z"
         id="path22" /></clipPath></defs><sodipodi:namedview
     pagecolor="#ffffff"
     bordercolor="#666666"
     borderopacity="1"
     objecttolerance="10"
     gridtolerance="10"
     guidetolerance="10"
     inkscape:pageopacity="0"
     inkscape:pageshadow="2"
     inkscape:window-width="1024"
     inkscape:window-height="554"
     id="namedview4"
     showgrid="false"
     inkscape:zoom="0.95353535"
     inkscape:cx="401.52501"
     inkscape:cy="-4.3559568"
     inkscape:window-x="0"
     inkscape:window-y="0"
     inkscape:window-maximized="0"
     inkscape:current-layer="g12" /><g
     id="g12"
     inkscape:groupmode="layer"
     inkscape:label="Microsoft_Windows_1_0"
     transform="matrix(1.25,0,0,-1.25,-16.111312,553.54)"><g
       id="g2941"
       transform="translate(-127.32209,127.63559)"><path
         d="m 140.21114,302.71441 0,-22.759 53.7265,0 0,34.759 -41.7265,0 c -6.627,0 -12,-5.373 -12,-12 z m 58.9029,-81.182 64.433,0 c 6.627,0 12,5.373 12,12 l 0,24.2379 -76.433,0 0,-36.2379 z m -58.9029,12 c 0,-6.627 5.373,-12 12,-12 l 41.7265,0 0,53.2465 -53.7265,0 0,-41.2465 z m 123.3359,81.182 -64.433,0 0,-52.1371 76.433,0 0,40.1371 c 0,6.627 -5.373,12 -12,12"
         style="fill:#96c4eb;fill-opacity:1;fill-rule:nonzero;stroke:none"
         id="path24" /><path
         d="m 431.53804,306.89541 c -0.07,0.14 -0.146,0.254 -0.227,0.342 -0.081,0.087 -0.151,0.131 -0.209,0.131 -0.128,0 -0.227,-0.345 -0.297,-1.033 -0.07,-0.689 -0.14,-1.997 -0.21,-3.923 l -0.177,-4.78 c -0.012,-0.409 -0.021,-0.835 -0.027,-1.278 -0.006,-0.444 -0.008,-1.051 -0.008,-1.82 0,-1.179 0.095,-2.004 0.288,-2.477 0.192,-0.473 0.539,-0.866 1.04,-1.181 0.221,-0.141 0.547,-0.257 0.979,-0.35 0.023,-0.012 0.041,-0.018 0.052,-0.018 l 0.036,0 c 0.524,-0.128 0.787,-0.321 0.787,-0.576 0,-0.141 -0.069,-0.252 -0.202,-0.333 -0.134,-0.081 -0.319,-0.122 -0.552,-0.122 -0.094,0 -0.31,0.018 -0.649,0.055 -1.156,0.109 -2.243,0.164 -3.259,0.164 -0.468,0 -0.953,-0.037 -1.455,-0.11 -0.502,-0.073 -0.771,-0.109 -0.806,-0.109 -0.14,0 -0.271,0.055 -0.394,0.165 -0.123,0.111 -0.184,0.235 -0.184,0.375 0,0.093 0.029,0.185 0.088,0.278 0.058,0.093 0.122,0.151 0.192,0.174 0.035,0.012 0.07,0.024 0.105,0.036 0.07,0.023 0.123,0.034 0.158,0.034 0.618,0.222 1.033,0.438 1.243,0.648 0.21,0.21 0.367,0.496 0.472,0.858 0.246,0.759 0.488,2.626 0.727,5.604 0.239,2.977 0.359,6.205 0.359,9.684 0,1.599 -0.146,2.869 -0.438,3.808 -0.292,0.94 -0.759,1.643 -1.401,2.111 -0.152,0.128 -0.42,0.239 -0.806,0.332 -0.023,0.012 -0.041,0.018 -0.052,0.018 l -0.053,0.017 c -0.42,0.13 -0.63,0.318 -0.63,0.565 0,0.176 0.058,0.305 0.175,0.388 0.117,0.082 0.298,0.124 0.543,0.124 0.105,0 0.385,-0.021 0.841,-0.063 0.455,-0.042 0.858,-0.062 1.208,-0.062 l 0.28,0 c 0.047,0.011 0.106,0.02 0.176,0.027 0.071,0.005 0.182,0.008 0.335,0.008 0.821,0 1.367,-0.295 1.638,-0.885 l 0.017,-0.035 8.79,-18.594 c 0.07,-0.152 0.146,-0.266 0.229,-0.341 0.082,-0.076 0.162,-0.114 0.244,-0.114 0.082,0 0.16,0.041 0.236,0.122 0.076,0.082 0.162,0.216 0.256,0.403 l 9.297,18.772 c 0.011,0.023 0.035,0.064 0.07,0.124 0.162,0.318 0.436,0.477 0.82,0.477 l 0.75,0 c 0.338,0 0.727,0.027 1.17,0.081 0.442,0.053 0.711,0.08 0.803,0.08 0.232,0 0.416,-0.042 0.551,-0.125 0.133,-0.082 0.201,-0.2 0.201,-0.353 0,-0.26 -0.223,-0.455 -0.664,-0.585 l -0.018,0 c -0.197,-0.023 -0.369,-0.062 -0.515,-0.114 -0.145,-0.053 -0.272,-0.119 -0.375,-0.201 -0.373,-0.245 -0.635,-0.54 -0.787,-0.883 -0.151,-0.344 -0.227,-0.866 -0.227,-1.565 l 0,-0.455 0.367,-16.076 c 0,-0.047 0,-0.123 0,-0.227 0.035,-1.771 0.461,-2.861 1.278,-3.268 0.162,-0.082 0.408,-0.17 0.734,-0.263 0.035,-0.012 0.07,-0.023 0.105,-0.035 l 0.018,0 c 0.43,-0.117 0.646,-0.28 0.646,-0.489 0,-0.164 -0.07,-0.289 -0.21,-0.377 -0.139,-0.086 -0.344,-0.13 -0.612,-0.13 -0.267,0 -0.818,0.024 -1.65,0.072 -0.834,0.049 -1.524,0.074 -2.071,0.074 -0.535,0 -1.095,-0.037 -1.677,-0.11 -0.582,-0.073 -0.891,-0.109 -0.926,-0.109 -0.186,0 -0.322,0.032 -0.41,0.096 -0.088,0.064 -0.131,0.16 -0.131,0.289 0,0.163 0.043,0.291 0.131,0.384 0.088,0.094 0.295,0.193 0.621,0.298 0.045,0.011 0.098,0.029 0.156,0.052 0.059,0.023 0.145,0.064 0.262,0.123 0.385,0.186 0.656,0.455 0.812,0.804 0.159,0.35 0.237,0.91 0.237,1.68 0,0.128 -0.006,0.358 -0.018,0.691 -0.012,0.332 -0.017,0.591 -0.017,0.778 l -0.209,11.347 c -0.024,0.631 -0.071,1.077 -0.141,1.34 -0.07,0.263 -0.168,0.394 -0.297,0.394 -0.117,0 -0.256,-0.1 -0.42,-0.298 -0.162,-0.198 -0.344,-0.502 -0.541,-0.91 l -7.605,-15.428 c -0.141,-0.301 -0.272,-0.513 -0.395,-0.634 -0.121,-0.122 -0.254,-0.183 -0.392,-0.183 -0.153,0 -0.293,0.067 -0.422,0.2 -0.129,0.133 -0.25,0.339 -0.368,0.617 l -7.389,15.778"
         style="fill:#231f20;fill-opacity:1;fill-rule:nonzero;stroke:none"
         id="path26" /><path
         d="m 469.83604,294.40341 0,15.538 c 0,1.013 -0.078,1.73 -0.237,2.15 -0.158,0.419 -0.437,0.775 -0.834,1.066 -0.281,0.234 -0.703,0.402 -1.263,0.507 -0.012,0 -0.024,0 -0.035,0 -0.317,0.059 -0.522,0.13 -0.616,0.213 -0.093,0.082 -0.14,0.206 -0.14,0.372 0,0.176 0.052,0.301 0.158,0.371 0.105,0.071 0.291,0.107 0.56,0.107 0.082,0 0.522,-0.037 1.323,-0.109 0.799,-0.074 1.549,-0.11 2.25,-0.11 1.236,0 2.445,0.061 3.625,0.185 0.209,0.023 0.332,0.034 0.367,0.034 0.164,0 0.297,-0.047 0.402,-0.141 0.106,-0.093 0.158,-0.205 0.158,-0.334 0,-0.14 -0.048,-0.258 -0.148,-0.351 -0.098,-0.094 -0.334,-0.194 -0.705,-0.299 -0.315,-0.094 -0.559,-0.184 -0.733,-0.272 -0.173,-0.087 -0.33,-0.189 -0.47,-0.306 -0.301,-0.257 -0.514,-0.572 -0.635,-0.946 -0.123,-0.374 -0.184,-1.087 -0.184,-2.137 l 0,-15.573 c 0,-1.025 0.082,-1.764 0.245,-2.218 0.164,-0.454 0.449,-0.833 0.857,-1.135 0.305,-0.233 0.725,-0.397 1.26,-0.489 0.035,-0.012 0.058,-0.018 0.07,-0.018 0.315,-0.047 0.525,-0.111 0.629,-0.192 0.105,-0.082 0.158,-0.198 0.158,-0.35 0,-0.186 -0.049,-0.314 -0.148,-0.384 -0.1,-0.07 -0.301,-0.105 -0.606,-0.105 -0.361,0 -0.968,0.036 -1.82,0.109 -0.854,0.073 -1.537,0.11 -2.051,0.11 -1.097,0 -2.213,-0.062 -3.346,-0.183 -0.232,-0.024 -0.373,-0.036 -0.419,-0.036 -0.188,0 -0.331,0.04 -0.43,0.121 -0.1,0.08 -0.149,0.19 -0.149,0.329 0,0.253 0.229,0.473 0.684,0.658 0.035,0.011 0.059,0.017 0.07,0.017 0.244,0.081 0.463,0.174 0.657,0.28 0.191,0.105 0.369,0.228 0.533,0.368 0.349,0.315 0.597,0.674 0.744,1.077 0.146,0.403 0.219,1.094 0.219,2.076"
         style="fill:#231f20;fill-opacity:1;fill-rule:nonzero;stroke:none"
         id="path28" /><path
         d="m 508.60304,291.93341 c -1.285,-0.954 -2.703,-1.67 -4.258,-2.147 -1.552,-0.477 -3.265,-0.715 -5.134,-0.715 -3.774,0 -6.752,1.131 -8.936,3.396 -2.185,2.265 -3.277,5.352 -3.277,9.262 0,1.973 0.312,3.794 0.937,5.463 0.625,1.668 1.545,3.145 2.76,4.429 1.086,1.155 2.348,2.02 3.785,2.591 1.438,0.572 3.072,0.859 4.906,0.859 1.075,0 2.106,-0.106 3.094,-0.317 0.987,-0.211 1.965,-0.538 2.936,-0.983 0.42,-0.187 0.902,-0.468 1.445,-0.843 0.543,-0.375 0.897,-0.562 1.061,-0.562 0.103,0 0.25,0.055 0.437,0.167 0.186,0.111 0.315,0.167 0.385,0.167 0.105,0 0.187,-0.059 0.246,-0.176 0.059,-0.117 0.1,-0.298 0.123,-0.543 l 0.35,-3.734 c 0.011,-0.094 0.021,-0.193 0.027,-0.299 0.006,-0.105 0.008,-0.245 0.008,-0.42 0,-0.234 -0.03,-0.394 -0.088,-0.482 -0.059,-0.088 -0.158,-0.132 -0.297,-0.132 -0.281,0 -0.574,0.357 -0.877,1.07 -0.211,0.502 -0.398,0.888 -0.56,1.157 -1.006,1.589 -2.225,2.813 -3.657,3.672 -1.431,0.859 -2.967,1.289 -4.601,1.289 -2.795,0 -5.069,-1.008 -6.821,-3.021 -1.754,-2.014 -2.63,-4.644 -2.63,-7.889 0,-3.771 0.923,-6.859 2.769,-9.264 1.848,-2.405 4.191,-3.607 7.031,-3.607 1.285,0 2.555,0.25 3.805,0.753 1.25,0.502 2.355,1.209 3.314,2.12 0.456,0.432 0.891,0.999 1.305,1.7 0.416,0.701 0.723,1.052 0.922,1.052 0.092,0 0.168,-0.047 0.227,-0.141 0.058,-0.093 0.087,-0.21 0.087,-0.35 0,-0.047 -0.007,-0.123 -0.025,-0.228 -0.017,-0.105 -0.045,-0.222 -0.08,-0.35 l -0.719,-2.944"
         style="fill:#231f20;fill-opacity:1;fill-rule:nonzero;stroke:none"
         id="path30" /><path
         d="m 526.37504,312.18041 0,-8.706 c 0,-0.327 0.111,-0.549 0.334,-0.666 0.222,-0.117 0.771,-0.175 1.648,-0.175 l 0.352,0 c 2.261,0 3.896,0.397 4.904,1.191 1.008,0.794 1.512,2.073 1.512,3.837 0,1.822 -0.6,3.246 -1.801,4.274 -1.201,1.027 -2.867,1.542 -4.998,1.542 -0.797,0 -1.322,-0.091 -1.574,-0.272 -0.252,-0.181 -0.377,-0.523 -0.377,-1.025 z m -2.782,-17.777 0,15.553 c 0,1.01 -0.078,1.723 -0.236,2.142 -0.158,0.418 -0.43,0.777 -0.814,1.079 -0.153,0.116 -0.325,0.211 -0.516,0.287 -0.193,0.075 -0.435,0.142 -0.728,0.2 -0.303,0.048 -0.498,0.11 -0.586,0.187 -0.088,0.077 -0.131,0.186 -0.131,0.329 0,0.201 0.043,0.337 0.131,0.409 0.088,0.071 0.265,0.107 0.535,0.107 0.103,0 0.545,-0.032 1.32,-0.094 0.777,-0.063 1.498,-0.094 2.166,-0.094 0.256,0 0.99,0.031 2.199,0.094 1.209,0.062 2.282,0.094 3.217,0.094 2.408,0 4.287,-0.537 5.637,-1.612 1.349,-1.074 2.025,-2.562 2.025,-4.465 0,-1.343 -0.39,-2.56 -1.172,-3.651 -0.783,-1.092 -1.884,-1.952 -3.308,-2.583 l 4.113,-6.283 c 0.106,-0.163 0.258,-0.39 0.457,-0.681 1.693,-2.6 2.99,-4.126 3.891,-4.58 0.246,-0.129 0.576,-0.234 0.99,-0.315 0.416,-0.082 0.623,-0.216 0.623,-0.402 0,-0.246 -0.125,-0.414 -0.377,-0.508 -0.25,-0.092 -0.785,-0.139 -1.602,-0.139 -1.156,0 -2.16,0.299 -3.011,0.899 -0.852,0.6 -1.867,1.826 -3.047,3.677 l -3.744,5.921 c -0.364,0.56 -0.758,0.946 -1.186,1.156 -0.426,0.21 -1.201,0.316 -2.326,0.316 -0.725,0 -1.197,-0.088 -1.414,-0.263 -0.217,-0.175 -0.324,-0.508 -0.324,-0.999 l 0,-5.816 c 0,-1.036 0.09,-1.778 0.271,-2.227 0.182,-0.448 0.5,-0.823 0.957,-1.126 0.305,-0.222 0.766,-0.385 1.387,-0.489 0.047,-0.012 0.076,-0.018 0.088,-0.018 0.349,-0.047 0.582,-0.111 0.693,-0.192 0.112,-0.082 0.166,-0.198 0.166,-0.35 0,-0.186 -0.047,-0.314 -0.14,-0.384 -0.094,-0.07 -0.274,-0.105 -0.543,-0.105 -0.153,0 -0.672,0.036 -1.559,0.109 -0.889,0.073 -1.705,0.11 -2.453,0.11 -1.238,0 -2.441,-0.062 -3.609,-0.183 -0.209,-0.024 -0.338,-0.036 -0.385,-0.036 -0.176,0 -0.313,0.04 -0.412,0.121 -0.1,0.08 -0.149,0.19 -0.149,0.329 0,0.254 0.24,0.473 0.719,0.658 l 0.053,0.017 c 0.244,0.081 0.467,0.174 0.664,0.28 0.199,0.105 0.373,0.228 0.525,0.368 0.35,0.303 0.596,0.648 0.737,1.034 0.138,0.385 0.208,1.091 0.208,2.119"
         style="fill:#231f20;fill-opacity:1;fill-rule:nonzero;stroke:none"
         id="path32" /><path
         d="m 555.45304,303.14241 c 0,-1.424 0.195,-2.816 0.586,-4.176 0.39,-1.36 0.972,-2.682 1.744,-3.965 0.957,-1.6 2.131,-2.811 3.519,-3.633 1.391,-0.824 2.956,-1.235 4.696,-1.235 3.072,0 5.504,0.992 7.297,2.977 1.793,1.984 2.689,4.686 2.689,8.106 0,1.425 -0.234,2.875 -0.701,4.351 -0.467,1.477 -1.133,2.845 -1.998,4.106 -0.945,1.401 -2.088,2.464 -3.424,3.187 -1.338,0.724 -2.842,1.086 -4.512,1.086 -2.978,0 -5.371,-0.987 -7.181,-2.959 -1.811,-1.973 -2.715,-4.588 -2.715,-7.845 z m -2.688,-1.096 c 0,1.763 0.325,3.447 0.973,5.052 0.648,1.604 1.592,3.037 2.83,4.298 1.203,1.238 2.584,2.18 4.145,2.828 1.558,0.647 3.226,0.972 5.004,0.972 1.951,0 3.716,-0.316 5.3,-0.946 1.582,-0.631 2.977,-1.57 4.18,-2.819 1.121,-1.168 1.986,-2.536 2.594,-4.106 0.607,-1.57 0.912,-3.236 0.912,-4.999 0,-1.704 -0.281,-3.335 -0.842,-4.894 -0.56,-1.558 -1.355,-2.927 -2.383,-4.106 -1.261,-1.435 -2.717,-2.53 -4.365,-3.282 -1.646,-0.753 -3.422,-1.13 -5.326,-1.13 -3.879,0 -7.02,1.211 -9.42,3.633 -2.402,2.422 -3.602,5.588 -3.602,9.499"
         style="fill:#231f20;fill-opacity:1;fill-rule:nonzero;stroke:none"
         id="path34" /><path
         d="m 590.88304,291.60441 -0.782,4.019 c -0.023,0.082 -0.041,0.17 -0.052,0.264 -0.012,0.093 -0.016,0.222 -0.016,0.386 0,0.198 0.033,0.345 0.103,0.438 0.069,0.094 0.174,0.141 0.313,0.141 0.256,0 0.516,-0.369 0.783,-1.106 0.231,-0.667 0.457,-1.223 0.678,-1.667 0.56,-1.124 1.394,-2.01 2.506,-2.659 1.109,-0.65 2.359,-0.974 3.748,-0.974 1.81,0 3.262,0.499 4.355,1.499 1.092,1 1.639,2.318 1.639,3.956 0,1.357 -0.406,2.424 -1.219,3.201 -0.812,0.778 -2.394,1.512 -4.742,2.202 -2.789,0.817 -4.715,1.76 -5.783,2.829 -1.067,1.068 -1.6,2.524 -1.6,4.37 0,1.938 0.727,3.517 2.18,4.737 1.453,1.22 3.353,1.831 5.699,1.831 1.307,0 2.697,-0.291 4.168,-0.871 0.397,-0.152 0.647,-0.227 0.752,-0.227 0.162,0 0.352,0.063 0.564,0.191 0.215,0.128 0.344,0.192 0.391,0.192 0.057,0 0.109,-0.047 0.156,-0.14 0.045,-0.092 0.075,-0.208 0.086,-0.348 l 0.5,-4.379 c 0.012,-0.059 0.02,-0.123 0.026,-0.193 0.006,-0.07 0.009,-0.163 0.009,-0.28 0,-0.175 -0.035,-0.304 -0.105,-0.385 -0.068,-0.082 -0.172,-0.123 -0.311,-0.123 -0.265,0 -0.496,0.274 -0.693,0.823 -0.195,0.549 -0.402,0.992 -0.623,1.331 -0.748,1.191 -1.562,2.047 -2.445,2.566 -0.883,0.52 -1.95,0.78 -3.2,0.78 -1.531,0 -2.798,-0.424 -3.804,-1.271 -1.004,-0.846 -1.506,-1.906 -1.506,-3.179 0,-1.145 0.318,-2.041 0.955,-2.69 0.637,-0.648 2.076,-1.334 4.32,-2.058 1.879,-0.584 3.198,-1.054 3.955,-1.411 0.758,-0.356 1.366,-0.744 1.821,-1.165 0.781,-0.712 1.359,-1.524 1.732,-2.435 0.373,-0.911 0.561,-1.956 0.561,-3.136 0,-2.301 -0.789,-4.126 -2.364,-5.475 -1.574,-1.349 -3.726,-2.024 -6.457,-2.024 -1.679,0 -3.117,0.236 -4.312,0.706 -1.195,0.471 -1.858,1.048 -1.986,1.734"
         style="fill:#231f20;fill-opacity:1;fill-rule:nonzero;stroke:none"
         id="path36" /><path
         d="m 620.66004,303.14241 c 0,-1.424 0.195,-2.816 0.586,-4.176 0.39,-1.36 0.972,-2.682 1.744,-3.965 0.957,-1.6 2.131,-2.811 3.52,-3.633 1.39,-0.824 2.955,-1.235 4.695,-1.235 3.072,0 5.504,0.992 7.297,2.977 1.793,1.984 2.689,4.686 2.689,8.106 0,1.425 -0.234,2.875 -0.701,4.351 -0.467,1.477 -1.133,2.845 -1.998,4.106 -0.945,1.401 -2.088,2.464 -3.424,3.187 -1.338,0.724 -2.842,1.086 -4.512,1.086 -2.978,0 -5.371,-0.987 -7.181,-2.959 -1.811,-1.973 -2.715,-4.588 -2.715,-7.845 z m -2.688,-1.096 c 0,1.763 0.325,3.447 0.973,5.052 0.648,1.604 1.592,3.037 2.83,4.298 1.203,1.238 2.584,2.18 4.145,2.828 1.558,0.647 3.226,0.972 5.004,0.972 1.951,0 3.716,-0.316 5.3,-0.946 1.582,-0.631 2.977,-1.57 4.18,-2.819 1.121,-1.168 1.986,-2.536 2.594,-4.106 0.607,-1.57 0.912,-3.236 0.912,-4.999 0,-1.704 -0.281,-3.335 -0.842,-4.894 -0.56,-1.558 -1.355,-2.927 -2.383,-4.106 -1.261,-1.435 -2.717,-2.53 -4.365,-3.282 -1.646,-0.753 -3.422,-1.13 -5.326,-1.13 -3.879,0 -7.02,1.211 -9.42,3.633 -2.402,2.422 -3.602,5.588 -3.602,9.499"
         style="fill:#231f20;fill-opacity:1;fill-rule:nonzero;stroke:none"
         id="path38" /><path
         d="m 658.14604,294.39941 0,15.547 c 0,1.012 -0.08,1.728 -0.236,2.147 -0.158,0.419 -0.43,0.78 -0.815,1.082 -0.164,0.117 -0.341,0.212 -0.533,0.288 -0.193,0.076 -0.441,0.143 -0.744,0.201 -0.305,0.047 -0.502,0.109 -0.596,0.186 -0.093,0.077 -0.138,0.186 -0.138,0.328 0.011,0.213 0.06,0.354 0.148,0.425 0.088,0.071 0.266,0.112 0.533,0.124 0.047,0 0.211,-0.011 0.491,-0.034 1.843,-0.124 3.787,-0.185 5.83,-0.185 l 1.687,0 c 1.471,0 3.022,0.054 4.656,0.162 1.635,0.108 2.534,0.162 2.698,0.162 0.244,0 0.408,-0.048 0.49,-0.142 0.082,-0.094 0.123,-0.277 0.123,-0.548 0,-0.047 -0.008,-0.124 -0.02,-0.23 -0.011,-0.106 -0.017,-0.2 -0.017,-0.282 l -0.276,-2.934 c -0.023,-0.279 -0.07,-0.474 -0.138,-0.584 -0.069,-0.111 -0.172,-0.166 -0.309,-0.166 -0.148,0 -0.258,0.055 -0.326,0.166 -0.068,0.11 -0.102,0.27 -0.102,0.48 0,0.046 0.004,0.116 0.016,0.21 0.012,0.092 0.018,0.156 0.018,0.191 0,0.874 -0.313,1.485 -0.938,1.835 -0.625,0.349 -1.771,0.524 -3.441,0.524 l -2.504,0 c -1.184,0 -1.942,-0.099 -2.276,-0.297 -0.334,-0.198 -0.5,-0.577 -0.5,-1.135 l 0,-7.385 c 0,-0.644 0.073,-1.034 0.219,-1.169 0.147,-0.134 0.483,-0.202 1.01,-0.202 l 2.949,0 c 1.106,0 1.906,0.088 2.401,0.264 0.496,0.176 0.888,0.475 1.179,0.897 0.117,0.175 0.244,0.494 0.385,0.957 0.139,0.463 0.332,0.695 0.576,0.695 0.141,0 0.233,-0.05 0.28,-0.15 0.046,-0.099 0.07,-0.325 0.07,-0.676 0,-0.199 -0.024,-0.676 -0.069,-1.432 -0.046,-0.755 -0.07,-1.408 -0.07,-1.959 0,-0.515 0.037,-1.034 0.113,-1.555 0.075,-0.521 0.114,-0.793 0.114,-0.817 0,-0.21 -0.051,-0.389 -0.149,-0.535 -0.097,-0.147 -0.217,-0.22 -0.355,-0.22 -0.289,0 -0.475,0.287 -0.557,0.86 -0.056,0.41 -0.121,0.709 -0.189,0.896 -0.199,0.503 -0.549,0.857 -1.051,1.062 -0.502,0.204 -1.301,0.307 -2.398,0.307 l -3.405,0 c -0.445,0 -0.73,-0.067 -0.859,-0.202 -0.129,-0.135 -0.194,-0.46 -0.194,-0.974 l 0,-6.218 c 0,-1.024 0.084,-1.763 0.254,-2.216 0.17,-0.454 0.459,-0.832 0.87,-1.134 0.304,-0.232 0.726,-0.396 1.265,-0.488 0.035,-0.012 0.059,-0.018 0.07,-0.018 0.317,-0.047 0.524,-0.108 0.624,-0.183 0.099,-0.077 0.156,-0.196 0.167,-0.359 0,-0.186 -0.05,-0.314 -0.15,-0.384 -0.098,-0.07 -0.299,-0.105 -0.603,-0.105 -0.338,0 -0.952,0.036 -1.838,0.109 -0.887,0.073 -1.606,0.11 -2.153,0.11 -0.91,0 -1.849,-0.062 -2.818,-0.183 -0.199,-0.024 -0.322,-0.036 -0.367,-0.036 -0.164,0 -0.289,0.043 -0.377,0.13 -0.088,0.086 -0.131,0.204 -0.131,0.354 0,0.115 0.039,0.219 0.121,0.312 0.082,0.092 0.256,0.202 0.524,0.329 0.197,0.081 0.375,0.174 0.531,0.28 0.158,0.105 0.299,0.227 0.427,0.367 0.292,0.338 0.497,0.724 0.62,1.155 0.121,0.432 0.183,1.096 0.183,1.995"
         style="fill:#231f20;fill-opacity:1;fill-rule:nonzero;stroke:none"
         id="path40" /><path
         d="m 692.23004,294.06941 0,18.107 c 0,0.34 -0.072,0.573 -0.219,0.702 -0.144,0.128 -0.404,0.193 -0.777,0.193 l -4.984,0 c -0.643,0 -1.17,-0.159 -1.584,-0.474 -0.414,-0.315 -0.785,-0.842 -1.112,-1.578 -0.082,-0.2 -0.173,-0.493 -0.277,-0.881 -0.15,-0.575 -0.353,-0.868 -0.607,-0.88 -0.139,0.012 -0.231,0.047 -0.276,0.106 -0.047,0.059 -0.07,0.182 -0.07,0.371 0,0.141 0.002,0.258 0.008,0.352 0.006,0.095 0.015,0.183 0.025,0.266 l 0.373,3.612 c 0.035,0.311 0.113,0.516 0.237,0.614 0.123,0.099 0.441,0.148 0.955,0.148 0.15,0 0.697,-0.037 1.636,-0.109 0.94,-0.074 1.801,-0.11 2.582,-0.11 l 11.203,0 c 0.872,0 1.813,0.036 2.829,0.11 1.013,0.072 1.597,0.109 1.748,0.109 0.244,0 0.423,-0.049 0.539,-0.147 0.117,-0.098 0.185,-0.257 0.209,-0.475 l 0.25,-3.261 0,-0.246 c 0,-0.234 -0.035,-0.406 -0.104,-0.517 -0.07,-0.112 -0.181,-0.167 -0.332,-0.167 -0.256,0 -0.424,0.234 -0.506,0.702 -0.08,0.467 -0.174,0.794 -0.277,0.982 -0.232,0.467 -0.606,0.83 -1.117,1.087 -0.51,0.257 -1.104,0.386 -1.778,0.386 l -4.652,0 c -0.435,0 -0.728,-0.065 -0.881,-0.193 -0.152,-0.129 -0.228,-0.375 -0.228,-0.737 l 0,-18.213 c 0,-1.087 0.092,-1.81 0.273,-2.166 0.182,-0.357 0.541,-0.652 1.082,-0.886 0.27,-0.129 0.633,-0.239 1.092,-0.333 0.059,-0.011 0.105,-0.023 0.141,-0.035 0.316,-0.046 0.521,-0.107 0.615,-0.182 0.094,-0.075 0.14,-0.188 0.14,-0.337 0,-0.185 -0.064,-0.32 -0.193,-0.407 -0.129,-0.086 -0.328,-0.13 -0.596,-0.13 -0.293,0 -0.894,0.041 -1.806,0.122 -0.914,0.081 -1.674,0.122 -2.281,0.122 -0.809,0 -1.657,-0.053 -2.545,-0.157 -0.889,-0.104 -1.375,-0.156 -1.457,-0.156 -0.209,0 -0.377,0.043 -0.5,0.13 -0.123,0.087 -0.184,0.205 -0.184,0.355 0,0.184 0.064,0.323 0.191,0.415 0.129,0.092 0.409,0.167 0.84,0.225 0.047,0.012 0.104,0.024 0.174,0.035 0.408,0.094 0.711,0.182 0.908,0.264 0.502,0.221 0.842,0.508 1.022,0.858 0.181,0.351 0.271,1.152 0.271,2.404"
         style="fill:#231f20;fill-opacity:1;fill-rule:nonzero;stroke:none"
         id="path42" /><path
         d="m 408.77304,235.17341 0,37.0285 c 0,2.4266 -0.188,4.1426 -0.564,5.1465 -0.376,1.004 -1.037,1.854 -1.985,2.552 -0.669,0.557 -1.672,0.962 -3.007,1.214 -0.029,0 -0.057,0 -0.084,0 -0.752,0.138 -1.241,0.304 -1.463,0.5 -0.223,0.194 -0.334,0.486 -0.334,0.875 0,0.416 0.125,0.707 0.375,0.875 0.25,0.166 0.695,0.25 1.335,0.25 0.194,0 1.244,-0.094 3.148,-0.282 1.904,-0.187 3.691,-0.281 5.36,-0.281 2.948,0 5.825,0.158 8.633,0.475 0.5,0.058 0.792,0.088 0.876,0.088 0.389,0 0.709,-0.113 0.959,-0.336 0.25,-0.225 0.376,-0.491 0.376,-0.798 0,-0.336 -0.118,-0.616 -0.354,-0.84 -0.237,-0.225 -0.799,-0.462 -1.688,-0.714 -0.75,-0.223 -1.334,-0.439 -1.75,-0.648 -0.417,-0.209 -0.792,-0.452 -1.125,-0.73 -0.722,-0.612 -1.229,-1.363 -1.52,-2.2539 -0.292,-0.8906 -0.438,-2.5887 -0.438,-5.0926 l 0,-37.1125 c 0,-2.4648 0.195,-4.2449 0.585,-5.3379 0.39,-1.0922 1.072,-2.0019 2.047,-2.7312 0.725,-0.5598 1.728,-0.9528 3.009,-1.177 0.083,-0.0277 0.138,-0.0418 0.167,-0.0418 0.752,-0.1109 1.253,-0.2609 1.504,-0.4551 0.25,-0.1929 0.376,-0.4679 0.376,-0.8261 0,-0.4411 -0.119,-0.7438 -0.356,-0.9079 -0.236,-0.166 -0.717,-0.248 -1.439,-0.248 -0.864,0 -2.311,0.084 -4.342,0.25 -2.032,0.166 -3.66,0.25 -4.885,0.25 -2.616,0 -5.274,-0.141 -7.973,-0.418 -0.557,-0.055 -0.891,-0.082 -1.002,-0.082 -0.446,0 -0.788,0.1 -1.024,0.2949 -0.236,0.1973 -0.354,0.4672 -0.354,0.8051 0,0.6211 0.543,1.1559 1.63,1.607 0.083,0.027 0.138,0.043 0.167,0.043 0.585,0.193 1.107,0.416 1.567,0.668 0.459,0.25 0.884,0.5429 1.274,0.8769 0.836,0.75 1.428,1.6051 1.777,2.566 0.347,0.959 0.522,2.6102 0.522,4.9481"
         style="fill:#231f20;fill-opacity:1;fill-rule:nonzero;stroke:none"
         id="path44" /><path
         d="m 434.92404,237.87651 0.709,22.3082 c 0.027,0.5293 0.048,1.1016 0.062,1.7168 0.014,0.6133 0.02,1.4922 0.02,2.6367 0,3.9059 -0.286,6.9274 -0.854,9.0621 -0.57,2.1348 -1.507,3.8575 -2.813,5.1691 -0.951,0.914 -2.224,1.614 -3.817,2.099 -1.594,0.486 -2.391,1.034 -2.391,1.643 0,0.36 0.105,0.617 0.315,0.769 0.209,0.153 0.623,0.243 1.239,0.271 0.139,0 0.63,-0.034 1.47,-0.101 0.839,-0.068 1.582,-0.101 2.226,-0.101 l 2.292,0 c 0.834,0 1.405,-0.069 1.711,-0.205 0.305,-0.137 0.625,-0.398 0.959,-0.78 l 40.866,-45.8691 c 0.279,-0.2789 0.482,-0.461 0.607,-0.545 0.125,-0.0839 0.231,-0.125 0.315,-0.125 0.082,0 0.144,0.1192 0.187,0.3551 0.041,0.2391 0.063,0.6078 0.063,1.1102 l 0,29.2144 c 0,4.3532 -0.231,7.443 -0.69,9.2711 -0.461,1.8281 -1.25,3.1043 -2.365,3.8303 -0.949,0.581 -2.219,1.058 -3.809,1.432 -1.591,0.373 -2.386,0.837 -2.386,1.392 0,0.305 0.097,0.567 0.293,0.789 0.195,0.221 0.418,0.332 0.669,0.332 0.166,0 1.01,-0.115 2.53,-0.344 1.519,-0.229 2.988,-0.343 4.41,-0.343 1.59,0 3.31,0.114 5.164,0.343 1.854,0.229 2.893,0.344 3.115,0.344 0.53,-0.027 0.934,-0.131 1.213,-0.31 0.279,-0.179 0.418,-0.42 0.418,-0.722 0,-0.303 -0.076,-0.544 -0.23,-0.723 -0.153,-0.18 -0.508,-0.365 -1.067,-0.557 l -0.084,-0.043 c -0.697,-0.223 -1.226,-0.488 -1.588,-0.794 -0.781,-0.699 -1.367,-1.724 -1.757,-3.0775 -0.391,-1.3535 -0.586,-3.048 -0.586,-5.0851 l 0,-47.1004 c 0,-0.9199 -0.077,-1.5172 -0.229,-1.7961 -0.152,-0.2777 -0.41,-0.4168 -0.771,-0.4168 -0.196,0 -0.416,0.084 -0.666,0.2539 -0.25,0.1699 -0.543,0.4539 -0.875,0.8481 l -38.372,43.4398 c -0.195,0.2227 -0.39,0.418 -0.585,0.5859 -0.196,0.1672 -0.307,0.2512 -0.334,0.2512 -0.139,0 -0.258,-0.084 -0.356,-0.2512 -0.098,-0.1679 -0.16,-0.405 -0.187,-0.7113 l -0.76,-30.2203 c 0,-0.473 -0.014,-1.0863 -0.041,-1.8383 -0.029,-0.7519 -0.043,-1.2808 -0.043,-1.5879 0,-2.3398 0.244,-4.0179 0.732,-5.0332 0.489,-1.0179 1.389,-1.8597 2.699,-2.5277 0.557,-0.2789 1.366,-0.4723 2.426,-0.584 l 0.084,0 c 0.641,-0.0562 1.067,-0.1601 1.276,-0.3121 0.209,-0.1539 0.314,-0.3961 0.314,-0.7301 0,-0.416 -0.119,-0.7019 -0.355,-0.8539 -0.237,-0.1519 -0.774,-0.2289 -1.61,-0.2289 -0.474,0 -1.799,0.0731 -3.972,0.2188 -2.174,0.1453 -4.098,0.2191 -5.769,0.2191 -0.977,0 -2.05,-0.0738 -3.22,-0.2191 -1.171,-0.1457 -1.84,-0.2188 -2.007,-0.2188 -0.418,0 -0.711,0.0688 -0.878,0.2059 -0.168,0.1379 -0.251,0.3449 -0.251,0.6211 0,0.6597 0.556,1.1968 1.667,1.6109 l 0.041,0 c 0.055,0.027 0.097,0.041 0.125,0.041 0.833,0.252 1.458,0.502 1.875,0.7539 2.25,1.3942 3.458,5.0082 3.626,10.8403 0,0.1679 0,0.2929 0,0.3769"
         style="fill:#231f20;fill-opacity:1;fill-rule:nonzero;stroke:none"
         id="path46" /><path
         d="m 501.98004,232.80931 c 0,-1.0328 0.069,-1.8078 0.209,-2.3238 0.139,-0.516 0.362,-0.8871 0.668,-1.109 1.059,-0.809 2.785,-1.4922 5.18,-2.0512 2.396,-0.5589 4.918,-0.8359 7.564,-0.8359 7.66,0 13.565,2.148 17.715,6.4449 4.151,4.2973 6.227,10.4383 6.227,18.418 0,9.1527 -2.641,16.4219 -7.918,21.8074 -5.28,5.3857 -12.418,8.0797 -21.414,8.0797 -3.371,0 -5.584,-0.35 -6.643,-1.047 -1.058,-0.698 -1.588,-2.177 -1.588,-4.437 l 0,-42.9461 z m -6.75,0.7949 0,40.1836 c 0,2.0868 -0.203,3.5684 -0.609,4.4456 -0.404,0.877 -1.125,1.621 -2.158,2.233 -0.532,0.306 -1.313,0.57 -2.346,0.793 -0.113,0.027 -0.184,0.042 -0.211,0.042 -0.754,0.139 -1.242,0.291 -1.467,0.458 -0.222,0.166 -0.334,0.416 -0.334,0.75 0,0.277 0.166,0.521 0.502,0.73 0.334,0.207 0.766,0.312 1.297,0.312 0.027,0 0.982,-0.062 2.865,-0.187 1.883,-0.125 3.744,-0.188 5.584,-0.188 1.422,0 3.758,0.063 7.008,0.188 3.248,0.125 5.779,0.187 7.592,0.187 10.264,0 18.322,-2.587 24.18,-7.7589 5.855,-5.1726 8.785,-12.3051 8.785,-21.3953 0,-9.3687 -2.985,-16.8609 -8.95,-22.4797 -5.966,-5.6191 -13.968,-8.4281 -24.005,-8.4281 -2.76,0 -5.764,0.084 -9.012,0.25 -3.248,0.166 -5.137,0.25 -5.666,0.25 -1.701,0 -3.402,-0.168 -5.104,-0.5 -1.701,-0.334 -2.564,-0.5 -2.591,-0.5 -0.391,0 -0.747,0.1191 -1.067,0.3551 -0.32,0.241 -0.48,0.4847 -0.48,0.7371 0,0.3898 0.138,0.7129 0.418,0.9648 0.277,0.252 0.822,0.5039 1.631,0.7551 0.111,0.0551 0.277,0.125 0.5,0.209 0.781,0.3328 1.324,0.6391 1.63,0.918 0.725,0.6121 1.241,1.3828 1.547,2.3148 0.307,0.932 0.461,2.3871 0.461,4.3609"
         style="fill:#231f20;fill-opacity:1;fill-rule:nonzero;stroke:none"
         id="path48" /><path
         d="m 555.74004,256.02651 c 0,-3.398 0.467,-6.7191 1.402,-9.9633 0.934,-3.2437 2.323,-6.3976 4.164,-9.4609 2.289,-3.816 5.094,-6.707 8.414,-8.6699 3.323,-1.9629 7.063,-2.943 11.221,-2.943 7.34,0 13.151,2.3672 17.436,7.102 4.283,4.7339 6.425,11.1808 6.425,19.341 0,3.3968 -0.558,6.8558 -1.675,10.3793 -1.116,3.5234 -2.707,6.7894 -4.772,9.7972 -2.262,3.3418 -4.988,5.8762 -8.183,7.6025 -3.196,1.727 -6.789,2.59 -10.78,2.59 -7.117,0 -12.838,-2.353 -17.164,-7.0597 -4.326,-4.707 -6.488,-10.9457 -6.488,-18.7152 z m -6.375,-2.6211 c 0,4.209 0.773,8.2285 2.322,12.0606 1.549,3.8324 3.801,7.2535 6.758,10.2632 2.873,2.9542 6.174,5.2052 9.898,6.7522 3.725,1.547 7.708,2.32 11.948,2.32 4.66,0 8.879,-0.753 12.66,-2.258 3.779,-1.505 7.107,-3.748 9.98,-6.7302 2.678,-2.7871 4.743,-6.0558 6.194,-9.8043 1.451,-3.748 2.177,-7.7265 2.177,-11.9336 0,-4.0699 -0.669,-7.9648 -2.009,-11.6859 -1.34,-3.7199 -3.237,-6.9879 -5.692,-9.802 -3.013,-3.43 -6.486,-6.0429 -10.42,-7.8402 -3.933,-1.7969 -8.175,-2.6957 -12.722,-2.6957 -9.264,0 -16.762,2.891 -22.494,8.6738 -5.735,5.784 -8.6,13.3442 -8.6,22.6801"
         style="fill:#231f20;fill-opacity:1;fill-rule:nonzero;stroke:none"
         id="path50" /><path
         d="m 632.82604,223.42651 -21.244,51.3289 c -0.643,1.5 -1.311,2.7375 -2.008,3.71 -0.697,0.973 -1.422,1.695 -2.174,2.168 -0.279,0.139 -0.724,0.306 -1.338,0.501 -0.113,0.027 -0.211,0.055 -0.293,0.083 l -0.043,0.041 c -1.058,0.277 -1.588,0.694 -1.588,1.251 0,0.333 0.131,0.583 0.397,0.75 0.266,0.166 0.705,0.264 1.318,0.292 0.082,0 0.334,-0.026 0.752,-0.079 2.174,-0.239 4.293,-0.358 6.358,-0.358 1.392,0 2.814,0.072 4.265,0.218 1.449,0.146 2.201,0.219 2.258,0.219 0.473,0 0.836,-0.091 1.086,-0.271 0.252,-0.181 0.377,-0.438 0.377,-0.772 0,-0.25 -0.572,-0.702 -1.715,-1.355 -1.142,-0.654 -1.715,-1.592 -1.715,-2.815 0,-0.501 0.119,-1.1474 0.356,-1.9392 0.236,-0.793 0.607,-1.7727 1.109,-2.9407 l 16.008,-38.2402 c 0.168,-0.418 0.355,-0.7469 0.564,-0.9828 0.209,-0.2379 0.411,-0.3551 0.606,-0.3551 0.195,0 0.404,0.125 0.627,0.375 0.222,0.252 0.418,0.5719 0.586,0.9629 l 6.691,16.3082 c 0.111,0.25 0.195,0.5078 0.252,0.7738 0.055,0.2653 0.084,0.55 0.084,0.8571 0,0.1949 -0.021,0.432 -0.062,0.7109 -0.043,0.2789 -0.106,0.5449 -0.19,0.7949 l -8.324,20.0922 c -0.613,1.4727 -1.274,2.709 -1.984,3.71 -0.709,1 -1.44,1.723 -2.192,2.168 -0.752,0.416 -1.713,0.673 -2.883,0.77 -1.17,0.098 -1.754,0.438 -1.754,1.022 0.028,0.389 0.174,0.667 0.438,0.834 0.266,0.166 0.689,0.264 1.275,0.292 0.139,0 1.157,-0.073 3.051,-0.219 1.895,-0.146 3.707,-0.218 5.436,-0.218 1.308,0 2.679,0.072 4.115,0.218 1.435,0.146 2.223,0.219 2.363,0.219 0.445,0 0.774,-0.07 0.983,-0.209 0.209,-0.139 0.312,-0.361 0.312,-0.667 0,-0.307 -0.586,-0.731 -1.756,-1.272 -1.172,-0.543 -1.758,-1.341 -1.758,-2.398 0,-0.612 0.106,-1.3008 0.315,-2.0644 0.209,-0.7645 0.621,-1.9258 1.234,-3.4825 l 4.35,-10.264 c 0.139,-0.3633 0.271,-0.627 0.398,-0.7949 0.125,-0.168 0.229,-0.25 0.313,-0.25 0.084,0 0.16,0.0546 0.23,0.166 0.071,0.1113 0.188,0.3633 0.356,0.7539 l 1.799,4.1992 c 1.253,3.0609 2.14,5.441 2.656,7.1391 0.515,1.6972 0.773,3.0332 0.773,4.0076 0,0.807 -0.258,1.454 -0.773,1.942 -0.516,0.487 -1.373,0.856 -2.572,1.106 -0.782,0.167 -1.319,0.341 -1.612,0.522 -0.293,0.181 -0.439,0.411 -0.439,0.689 0,0.306 0.125,0.528 0.377,0.668 0.25,0.139 0.67,0.209 1.256,0.209 0.39,0 1.128,-0.054 2.218,-0.159 0.112,0 0.194,-0.014 0.25,-0.04 0.223,0 0.614,-0.027 1.172,-0.079 1.367,-0.107 2.442,-0.159 3.223,-0.159 1.172,0 2.512,0.092 4.017,0.278 0.28,0.026 0.475,0.052 0.586,0.08 0.112,0 0.231,0.013 0.356,0.039 0.125,0.026 0.244,0.04 0.355,0.04 0.448,0 0.776,-0.084 0.985,-0.251 0.209,-0.167 0.314,-0.431 0.314,-0.792 0,-0.529 -0.426,-0.954 -1.277,-1.274 -0.852,-0.321 -1.416,-0.591 -1.696,-0.813 -0.669,-0.585 -1.375,-1.538 -2.115,-2.8593 -0.74,-1.3223 -1.904,-3.9168 -3.496,-7.784 l -4.726,-11.1426 c -0.084,-0.1949 -0.147,-0.4121 -0.188,-0.6481 -0.043,-0.2359 -0.062,-0.48 -0.062,-0.73 0,-0.225 0.027,-0.4559 0.084,-0.6918 0.054,-0.2364 0.138,-0.4672 0.25,-0.6891 l 8.668,-20.6582 c 0.166,-0.418 0.355,-0.7469 0.564,-0.9828 0.209,-0.2379 0.426,-0.3551 0.648,-0.3551 0.168,0 0.35,0.1172 0.545,0.3551 0.196,0.2359 0.375,0.5648 0.543,0.9828 l 11.912,29.0621 c 1.336,3.266 2.368,6.1559 3.092,8.6676 0.725,2.5117 1.086,4.368 1.086,5.5694 0,0.558 -0.223,1.082 -0.668,1.57 -0.445,0.488 -1.017,0.816 -1.713,0.984 -0.168,0.055 -0.328,0.097 -0.482,0.125 -0.152,0.028 -0.313,0.043 -0.481,0.043 -0.836,0.192 -1.371,0.384 -1.607,0.578 -0.238,0.192 -0.355,0.454 -0.355,0.784 0,0.33 0.103,0.564 0.312,0.702 0.209,0.138 0.676,0.221 1.4,0.248 0.139,0 0.426,-0.014 0.858,-0.04 0.431,-0.026 0.801,-0.039 1.107,-0.039 0.836,-0.133 1.637,-0.227 2.403,-0.279 0.765,-0.053 1.539,-0.079 2.32,-0.079 1.17,0 2.478,0.092 3.928,0.278 0.279,0.026 0.488,0.052 0.627,0.08 0.084,0 0.187,0.013 0.314,0.039 0.125,0.026 0.272,0.04 0.438,0.04 0.445,0 0.773,-0.084 0.982,-0.251 0.209,-0.167 0.314,-0.431 0.314,-0.792 0,-0.445 -0.369,-0.87 -1.107,-1.273 -0.738,-0.405 -1.234,-0.717 -1.484,-0.94 -1.088,-1.113 -2.774,-4.3962 -5.057,-9.8494 l -0.252,-0.5839 -19.6,-46.6028 c -0.168,-0.416 -0.365,-0.7211 -0.587,-0.916 -0.225,-0.1937 -0.477,-0.2918 -0.758,-0.2918 -0.196,0 -0.407,0.118 -0.629,0.3539 -0.225,0.236 -0.42,0.5762 -0.588,1.0211 l -9.955,24.043 c -0.168,0.391 -0.293,0.6488 -0.377,0.7738 -0.084,0.125 -0.182,0.1891 -0.293,0.1891 -0.111,0 -0.236,-0.084 -0.377,-0.252 -0.139,-0.168 -0.264,-0.3898 -0.375,-0.668 l -10.123,-24.2531 c -0.195,-0.416 -0.404,-0.7211 -0.625,-0.916 -0.223,-0.1937 -0.473,-0.2918 -0.75,-0.2918 -0.279,0 -0.535,0.118 -0.772,0.3539 -0.236,0.236 -0.437,0.5762 -0.603,1.0211"
         style="fill:#231f20;fill-opacity:1;fill-rule:nonzero;stroke:none"
         id="path52" /><path
         d="m 690.28704,228.49721 -1.875,9.566 c -0.055,0.1961 -0.098,0.4051 -0.125,0.6274 -0.027,0.2226 -0.041,0.5289 -0.041,0.9199 0,0.473 0.082,0.8199 0.25,1.043 0.166,0.223 0.418,0.3359 0.752,0.3359 0.613,0 1.24,-0.8789 1.881,-2.6328 0.556,-1.5883 1.099,-2.9102 1.629,-3.9692 1.337,-2.673 3.332,-4.7851 5.982,-6.33 2.648,-1.5469 5.633,-2.318 8.951,-2.318 4.322,0 7.785,1.1891 10.393,3.5719 2.607,2.3832 3.912,5.5261 3.912,9.4261 0,3.2321 -0.971,5.775 -2.908,7.629 -1.938,1.8531 -5.709,3.6019 -11.313,5.246 -6.666,1.9508 -11.275,4.2032 -13.826,6.754 -2.553,2.5527 -3.828,6.0312 -3.828,10.4371 0,4.6289 1.734,8.4004 5.207,11.3149 3.473,2.914 8.012,4.371 13.617,4.371 3.123,0 6.441,-0.701 9.955,-2.101 0.947,-0.364 1.547,-0.546 1.799,-0.546 0.389,0 0.84,0.153 1.355,0.462 0.516,0.308 0.829,0.462 0.94,0.462 0.139,0 0.264,-0.113 0.375,-0.336 0.111,-0.224 0.182,-0.503 0.209,-0.838 l 1.209,-10.4503 c 0.027,-0.1394 0.049,-0.2929 0.062,-0.4597 0.014,-0.168 0.022,-0.3907 0.022,-0.6692 0,-0.4179 -0.084,-0.7246 -0.252,-0.9199 -0.166,-0.1953 -0.416,-0.2918 -0.75,-0.2918 -0.641,0 -1.195,0.6543 -1.668,1.9637 -0.473,1.3097 -0.975,2.3691 -1.502,3.1777 -1.785,2.8418 -3.731,4.8825 -5.836,6.1235 -2.105,1.24 -4.648,1.86 -7.633,1.86 -3.652,0 -6.678,-1.011 -9.076,-3.031 -2.398,-2.0216 -3.596,-4.5509 -3.596,-7.5892 0,-2.7313 0.76,-4.8715 2.28,-6.4184 1.519,-1.5468 4.957,-3.1836 10.31,-4.9121 4.49,-1.3941 7.641,-2.5172 9.453,-3.3672 1.813,-0.8511 3.264,-1.7793 4.352,-2.7832 1.867,-1.7007 3.248,-3.639 4.14,-5.8148 0.893,-2.175 1.34,-4.6731 1.34,-7.4902 0,-5.4938 -1.882,-9.8528 -5.648,-13.0739 -3.766,-3.223 -8.912,-4.832 -15.438,-4.832 -4.015,0 -7.453,0.566 -10.312,1.7012 -2.859,1.1347 -4.442,2.5277 -4.748,4.1816"
         style="fill:#231f20;fill-opacity:1;fill-rule:nonzero;stroke:none"
         id="path54" /><path
         d="m 325.98204,225.78241 -31.149,75.238 c -0.94,2.207 -1.922,4.026 -2.943,5.458 -1.022,1.431 -2.084,2.494 -3.188,3.189 -0.409,0.204 -1.063,0.449 -1.963,0.736 -0.164,0.041 -0.306,0.082 -0.428,0.123 l -0.062,0.061 c -1.553,0.408 -2.33,1.022 -2.33,1.84 0,0.49 0.194,0.858 0.582,1.103 0.389,0.246 1.032,0.389 1.932,0.43 0.123,0 0.49,-0.042 1.103,-0.125 3.189,-0.375 6.295,-0.562 9.321,-0.562 2.043,0 4.128,0.114 6.254,0.343 2.125,0.229 3.228,0.344 3.31,0.344 0.695,0 1.227,-0.133 1.595,-0.398 0.367,-0.266 0.552,-0.645 0.552,-1.135 0,-0.368 -0.838,-1.032 -2.514,-1.993 -1.676,-0.961 -2.514,-2.341 -2.514,-4.14 0,-0.736 0.173,-1.686 0.521,-2.851 0.347,-1.167 0.888,-2.607 1.625,-4.324 l 23.497,-56.046 c 0.245,-0.6129 0.521,-1.0942 0.828,-1.441 0.307,-0.3481 0.603,-0.5219 0.89,-0.5219 0.285,0 0.591,0.184 0.919,0.5508 0.327,0.3691 0.613,0.8402 0.859,1.4121 l 9.806,23.914 c 0.163,0.3672 0.285,0.7458 0.367,1.1344 0.082,0.3887 0.123,0.8074 0.123,1.2578 0,0.286 -0.031,0.6336 -0.092,1.043 -0.061,0.4082 -0.153,0.7969 -0.275,1.1648 l -12.196,29.433 c -0.9,2.166 -1.873,3.985 -2.916,5.458 -1.044,1.472 -2.118,2.535 -3.222,3.189 -1.106,0.613 -2.518,0.992 -4.237,1.135 -1.718,0.142 -2.578,0.644 -2.578,1.502 0.041,0.572 0.255,0.981 0.644,1.226 0.388,0.246 1.011,0.389 1.871,0.43 0.204,0 1.696,-0.115 4.477,-0.344 2.781,-0.229 5.439,-0.343 7.974,-0.343 1.922,0 3.936,0.114 6.041,0.343 2.106,0.229 3.261,0.344 3.466,0.344 0.654,0 1.135,-0.102 1.441,-0.307 0.307,-0.205 0.46,-0.532 0.46,-0.981 0,-0.45 -0.858,-1.074 -2.574,-1.871 -1.717,-0.797 -2.574,-1.973 -2.574,-3.525 0,-0.9 0.152,-1.912 0.459,-3.035 0.306,-1.125 0.909,-2.832 1.808,-5.122 l 6.374,-15.023 c 0.204,-0.531 0.399,-0.92 0.582,-1.165 0.184,-0.246 0.337,-0.368 0.46,-0.368 0.122,0 0.235,0.081 0.337,0.245 0.102,0.164 0.276,0.532 0.521,1.104 l 2.636,6.134 c 1.837,4.496 3.135,7.991 3.891,10.486 0.756,2.493 1.134,4.455 1.134,5.886 0,1.186 -0.378,2.136 -1.134,2.851 -0.756,0.715 -2.013,1.257 -3.769,1.626 -1.145,0.244 -1.931,0.5 -2.36,0.765 -0.429,0.266 -0.643,0.604 -0.643,1.012 0,0.449 0.183,0.776 0.551,0.981 0.368,0.205 0.981,0.307 1.84,0.307 0.573,0 1.656,-0.084 3.249,-0.25 0.163,0 0.286,-0.021 0.368,-0.062 0.327,0 0.899,-0.042 1.717,-0.125 2.002,-0.167 3.576,-0.25 4.721,-0.25 1.717,0 3.679,0.145 5.886,0.437 0.408,0.041 0.694,0.083 0.858,0.125 0.164,0 0.338,0.021 0.522,0.063 0.183,0.041 0.357,0.062 0.521,0.062 0.653,0 1.134,-0.123 1.441,-0.368 0.306,-0.245 0.459,-0.634 0.459,-1.165 0,-0.777 -0.624,-1.401 -1.871,-1.87 -1.247,-0.471 -2.075,-0.869 -2.483,-1.195 -0.981,-0.86 -2.014,-2.26 -3.098,-4.202 -1.084,-1.941 -2.791,-5.753 -5.121,-11.435 l -6.925,-16.3126 c -0.123,-0.2871 -0.214,-0.6035 -0.276,-0.9511 -0.061,-0.3477 -0.092,-0.7051 -0.092,-1.0723 0,-0.3273 0.04,-0.6641 0.122,-1.0117 0.082,-0.3477 0.204,-0.6856 0.369,-1.0117 l 12.695,-30.2926 c 0.245,-0.6129 0.52,-1.0942 0.827,-1.441 0.307,-0.3481 0.623,-0.5219 0.951,-0.5219 0.244,0 0.51,0.1738 0.796,0.5219 0.286,0.3468 0.552,0.8281 0.798,1.441 l 17.461,42.618 c 1.96,4.782 3.471,9.012 4.533,12.691 1.062,3.679 1.593,6.398 1.593,8.155 0,0.818 -0.327,1.584 -0.981,2.299 -0.653,0.715 -1.49,1.196 -2.511,1.442 -0.246,0.081 -0.48,0.142 -0.704,0.183 -0.225,0.041 -0.46,0.062 -0.706,0.062 -1.225,0.286 -2.011,0.572 -2.358,0.859 -0.348,0.286 -0.52,0.675 -0.52,1.166 0,0.491 0.152,0.839 0.459,1.044 0.306,0.204 0.99,0.327 2.052,0.368 0.204,0 0.623,-0.021 1.256,-0.062 0.633,-0.042 1.175,-0.063 1.624,-0.063 1.225,-0.209 2.4,-0.354 3.523,-0.437 1.123,-0.084 2.255,-0.125 3.4,-0.125 1.715,0 3.635,0.145 5.759,0.437 0.408,0.041 0.714,0.083 0.919,0.125 0.122,0 0.275,0.021 0.459,0.063 0.183,0.041 0.398,0.062 0.643,0.062 0.654,0 1.133,-0.123 1.44,-0.368 0.306,-0.246 0.46,-0.634 0.46,-1.165 0,-0.654 -0.542,-1.278 -1.624,-1.871 -1.082,-0.593 -1.808,-1.053 -2.175,-1.379 -1.594,-1.636 -4.065,-6.46 -7.413,-14.472 l -0.367,-0.858 -28.734,-68.3092 c -0.246,-0.6078 -0.533,-1.0547 -0.861,-1.3398 -0.328,-0.2828 -0.696,-0.4258 -1.106,-0.4258 -0.287,0 -0.594,0.1738 -0.922,0.518 -0.329,0.3449 -0.615,0.8437 -0.861,1.4918 l -14.586,35.2578 c -0.245,0.5722 -0.428,0.9492 -0.552,1.1328 -0.123,0.1836 -0.265,0.2773 -0.428,0.2773 -0.164,0 -0.348,-0.123 -0.552,-0.3691 -0.204,-0.2441 -0.388,-0.5723 -0.551,-0.9805 l -14.831,-35.5625 c -0.287,-0.6078 -0.596,-1.0547 -0.924,-1.3398 -0.328,-0.2828 -0.697,-0.4258 -1.107,-0.4258 -0.41,0 -0.79,0.1738 -1.139,0.518 -0.349,0.3449 -0.646,0.8437 -0.892,1.4918"
         style="fill:#231f20;fill-opacity:1;fill-rule:nonzero;stroke:none"
         id="path56" /><path
         d="m 706.31604,294.69641 0.561,0 c 0.652,0 1.154,0.126 1.506,0.377 0.351,0.251 0.527,0.611 0.527,1.08 0,0.408 -0.152,0.734 -0.457,0.976 -0.305,0.243 -0.721,0.364 -1.246,0.364 -0.287,0 -0.506,-0.052 -0.66,-0.157 -0.155,-0.105 -0.231,-0.257 -0.231,-0.455 l 0,-2.185 z m -2.096,3.079 3.241,0 c 0.808,0 1.445,-0.149 1.908,-0.446 0.465,-0.296 0.697,-0.694 0.697,-1.194 0,-0.412 -0.187,-0.748 -0.564,-1.009 -0.377,-0.261 -0.983,-0.471 -1.819,-0.631 0.516,-0.17 0.905,-0.387 1.166,-0.651 0.26,-0.265 0.452,-0.633 0.573,-1.105 0.033,-0.127 0.068,-0.303 0.107,-0.529 0.076,-0.467 0.236,-0.701 0.479,-0.701 0.203,0 0.351,0.088 0.447,0.263 0.097,0.176 0.144,0.446 0.144,0.813 l 0.336,0 0,-0.099 c 0,-0.473 -0.109,-0.835 -0.328,-1.085 -0.221,-0.251 -0.539,-0.376 -0.955,-0.376 -0.248,0 -0.465,0.05 -0.65,0.152 -0.188,0.101 -0.321,0.242 -0.397,0.423 -0.088,0.21 -0.135,0.518 -0.14,0.923 -0.004,0.406 -0.03,0.68 -0.073,0.824 -0.115,0.364 -0.318,0.634 -0.605,0.808 -0.289,0.173 -0.678,0.26 -1.166,0.26 -0.033,0 -0.084,-0.003 -0.153,-0.008 -0.068,-0.005 -0.119,-0.008 -0.152,-0.008 l 0,-2.037 c 0,-0.309 0.08,-0.526 0.238,-0.65 0.161,-0.125 0.44,-0.192 0.84,-0.203 l 0,-0.328 -3.174,0 0,0.328 c 0.413,0.017 0.696,0.085 0.85,0.207 0.154,0.121 0.231,0.337 0.231,0.646 l 0,4.246 c 0,0.309 -0.077,0.523 -0.231,0.641 -0.154,0.119 -0.437,0.184 -0.85,0.195 l 0,0.331 z m 3.086,1.734 c -0.671,0 -1.318,-0.132 -1.945,-0.396 -0.625,-0.264 -1.176,-0.638 -1.646,-1.122 -0.485,-0.489 -0.854,-1.044 -1.11,-1.665 -0.254,-0.621 -0.383,-1.27 -0.383,-1.946 0,-0.687 0.129,-1.34 0.387,-1.959 0.26,-0.618 0.633,-1.169 1.121,-1.653 0.488,-0.495 1.033,-0.87 1.635,-1.126 0.602,-0.255 1.242,-0.383 1.924,-0.383 0.687,0 1.338,0.129 1.953,0.388 0.615,0.258 1.156,0.631 1.623,1.121 0.482,0.5 0.853,1.061 1.111,1.682 0.258,0.621 0.387,1.265 0.387,1.93 0,0.67 -0.133,1.329 -0.398,1.975 -0.268,0.646 -0.633,1.202 -1.1,1.67 -0.473,0.472 -1.02,0.838 -1.641,1.096 -0.621,0.259 -1.259,0.388 -1.918,0.388 z m 0.008,0.625 c 0.752,0 1.481,-0.147 2.184,-0.441 0.705,-0.295 1.326,-0.711 1.863,-1.25 0.527,-0.528 0.94,-1.148 1.232,-1.861 0.295,-0.712 0.442,-1.448 0.442,-2.206 0,-0.765 -0.147,-1.498 -0.442,-2.199 -0.292,-0.701 -0.714,-1.327 -1.265,-1.877 -0.543,-0.544 -1.162,-0.958 -1.858,-1.241 -0.695,-0.283 -1.431,-0.425 -2.207,-0.425 -0.757,0 -1.48,0.144 -2.168,0.433 -0.687,0.289 -1.304,0.706 -1.853,1.25 -0.551,0.545 -0.969,1.163 -1.258,1.856 -0.289,0.693 -0.433,1.427 -0.433,2.203 0,0.77 0.144,1.505 0.433,2.206 0.289,0.702 0.701,1.321 1.24,1.861 0.534,0.539 1.155,0.955 1.864,1.25 0.709,0.294 1.451,0.441 2.226,0.441"
         style="fill:#231f20;fill-opacity:1;fill-rule:nonzero;stroke:none"
         id="path58" /></g></g></svg>