<svg width="2774" height="2156" viewBox="0 0 2774 2156" fill="none" xmlns="http://www.w3.org/2000/svg">
<g clip-path="url(#clip0)">
<path d="M2773.5 0H0V2156H2773.5V0Z" fill="url(#paint0_linear)" fill-opacity="0.5"/>
<g opacity="0.8">
<rect width="11.094" height="334.669" rx="5.547" transform="matrix(-0.94667 0.322206 0.322206 0.94667 1035.86 -7.94385)" fill="url(#paint1_linear)"/>
<path d="M493.437 173.194C486.125 162.752 471.733 160.215 461.291 167.526C450.85 174.838 448.312 189.23 455.623 199.672L782.177 666.039C789.488 676.48 803.88 679.018 814.322 671.707C824.764 664.395 827.302 650.003 819.99 639.561L493.437 173.194Z" fill="url(#paint2_linear)"/>
<path d="M1525.2 351.211C1525.94 340.756 1518.06 331.684 1507.6 330.948C1497.15 330.212 1488.08 338.09 1487.34 348.546L1454.47 815.507C1453.73 825.962 1461.61 835.035 1472.07 835.771C1482.52 836.507 1491.59 828.628 1492.33 818.173L1525.2 351.211Z" fill="url(#paint3_linear)"/>
<path d="M799.158 1093.64C800.323 1085 808.272 1078.94 816.912 1080.11V1080.11C825.552 1081.28 831.612 1089.22 830.447 1097.86L778.399 1483.76C777.234 1492.4 769.285 1498.46 760.645 1497.3V1497.3C752.004 1496.13 745.945 1488.18 747.11 1479.54L799.158 1093.64Z" fill="url(#paint4_linear)"/>
<rect width="37.6271" height="414.013" rx="18.8135" transform="matrix(-0.925825 0.377953 0.768485 0.639868 120.836 65.2974)" fill="url(#paint5_linear)"/>
<rect width="35.131" height="739.6" rx="17.5655" transform="matrix(-0.819152 0.573576 0.573576 0.819152 2264.58 0)" fill="url(#paint6_linear)"/>
<rect width="35.131" height="739.6" rx="17.5655" transform="matrix(-0.819152 0.573576 0.573576 0.819152 1774.59 1320.19)" fill="url(#paint7_linear)"/>
</g>
</g>
<defs>
<linearGradient id="paint0_linear" x1="1151.52" y1="174.205" x2="2006.68" y2="2590.79" gradientUnits="userSpaceOnUse">
<stop stop-color="#A599FF"/>
<stop offset="0.07" stop-color="#B1A8FF"/>
<stop offset="0.28" stop-color="#B3A9FF"/>
<stop offset="1" stop-color="#6652FF"/>
</linearGradient>
<linearGradient id="paint1_linear" x1="45.4426" y1="-1495.67" x2="-49.18" y2="-1495.07" gradientUnits="userSpaceOnUse">
<stop stop-color="#8468F5"/>
<stop offset="1" stop-color="#EC74E7"/>
</linearGradient>
<linearGradient id="paint2_linear" x1="-86.2061" y1="-700.318" x2="60.0716" y2="-797.046" gradientUnits="userSpaceOnUse">
<stop stop-color="#8468F5"/>
<stop offset="1" stop-color="#EC74E7"/>
</linearGradient>
<linearGradient id="paint3_linear" x1="1607.21" y1="-506.849" x2="1750.73" y2="-492.899" gradientUnits="userSpaceOnUse">
<stop stop-color="#8468F5"/>
<stop offset="1" stop-color="#EC74E7"/>
</linearGradient>
<linearGradient id="paint4_linear" x1="877.2" y1="380.891" x2="757.949" y2="368.028" gradientUnits="userSpaceOnUse">
<stop stop-color="#8468F5"/>
<stop offset="1" stop-color="#EC74E7"/>
</linearGradient>
<linearGradient id="paint5_linear" x1="130.975" y1="-2148.88" x2="-263.83" y2="-2143.82" gradientUnits="userSpaceOnUse">
<stop stop-color="#8468F5"/>
<stop offset="0.946455" stop-color="#E673E8"/>
<stop offset="1" stop-color="#EC74E7"/>
</linearGradient>
<linearGradient id="paint6_linear" x1="-19.9473" y1="-1231.6" x2="-153.418" y2="-1229.35" gradientUnits="userSpaceOnUse">
<stop stop-color="#8468F5"/>
<stop offset="1" stop-color="#EC74E7"/>
</linearGradient>
<linearGradient id="paint7_linear" x1="-19.9473" y1="-1231.6" x2="-153.418" y2="-1229.35" gradientUnits="userSpaceOnUse">
<stop stop-color="#8468F5"/>
<stop offset="1" stop-color="#EC74E7"/>
</linearGradient>
<clipPath id="clip0">
<rect width="2774" height="2156" fill="white"/>
</clipPath>
</defs>
</svg>
