<svg aria-hidden="true" focusable="false" data-prefix="fas" data-icon="bars" 

class="svg-inline--fa fa-bars fa-w-14" role="img" xmlns="http://www.w3.org/2000/svg" 

viewBox="0 0 448 512">
<defs>
    <linearGradient id="grad1" x1="0%" y1="0%" x2="100%" y2="0%">
      <stop offset="0%" style="stop-color:rgba(241, 231, 255, 0.54)" />
      <stop offset="42.71%" style="stop-color:#FFFFFF"/>
      <stop offset="64%" style="stop-color: #FFFFFF" />
       <stop offset="100%" style="stop-color:rgba(241, 231, 255, 0.54)" />
    </linearGradient>
  </defs>

<path fill= "url(#grad1)"
 d="M16 132h416c8.837 0 16-7.163 16-16V76c0-8.837-7.163-16-16-16H16C7.163 60 0 67.163 0 76v40c0 8.837 7.163 16 16 16zm0 160h416c8.837 0 16-7.163 16-16v-40c0-8.837-7.163-16-16-16H16c-8.837 0-16 7.163-16 16v40c0 8.837 7.163 16 16 16zm0 160h416c8.837 0 16-7.163 16-16v-40c0-8.837-7.163-16-16-16H16c-8.837 0-16 7.163-16 16v40c0 8.837 7.163 16 16 16z"></path></svg>